# xmcd CD database file
#
# Track frame offsets:
#	150
#	17100
#	31027
#	50742
#	65100
#	88362
#	104650
#	121590
#	137525
#	155812
#
# Disc length: 2348 seconds
#
# Revision: 1
# Processed by: cddbd v1.4PL0 Copyright (c) Steve Scherf et al.
# Submitted via: CDex 1.40Beta9
#
DISCID=8b092a0a
DTITLE=Olav Stedje - Olav Stedje
DYEAR=1981
DGENRE=Country
TTITLE0=Vinternatt
TTITLE1=Spelemann
TTITLE2=Einsam
TTITLE3=Sommar-song
TTITLE4=Syng Meg Heim
TTITLE5=Lukkeleg Fyr
TTITLE6=Bli Hjå Meg
TTITLE7=Ta Ein Annan
TTITLE8=To Hjarte
TTITLE9=Om Du Fer Forbi
EXTD=YEAR: 1981 ID3G: 2
EXTT0=
EXTT1=
EXTT2=
EXTT3=
EXTT4=
EXTT5=
EXTT6=
EXTT7=
EXTT8=
EXTT9=
PLAYORDER=
